<svg width="18" height="16" viewBox="0 0 18 16" fill="none" xmlns="http://www.w3.org/2000/svg">
<path d="M17.1 0C17.3387 0 17.5676 0.0936505 17.7364 0.260349C17.9052 0.427049 18 0.653141 18 0.888889V15.1111C18 15.3469 17.9052 15.573 17.7364 15.7397C17.5676 15.9064 17.3387 16 17.1 16H0.9C0.661305 16 0.432387 15.9064 0.263604 15.7397C0.0948211 15.573 0 15.3469 0 15.1111V0.888889C0 0.653141 0.0948211 0.427049 0.263604 0.260349C0.432387 0.0936505 0.661305 0 0.9 0H17.1ZM8.1 8.88889H1.8V14.2222H8.1V8.88889ZM16.2 8.88889H9.9V14.2222H16.2V8.88889ZM8.1 1.77778H1.8V7.11111H8.1V1.77778ZM16.2 1.77778H9.9V7.11111H16.2V1.77778Z" fill="black"/>
</svg>
