<!-- Generated by IcoMoon.io -->
<svg version="1.1" xmlns="http://www.w3.org/2000/svg" width="27" height="32" viewBox="0 0 27 32">
<title>account</title>
<path d="M5.474 8.421c0-4.418 3.582-8 8-8s8 3.582 8 8-3.582 8-8 8c-4.418 0-8-3.582-8-8zM13.474 2.947c-3.023 0-5.474 2.451-5.474 5.474s2.451 5.474 5.474 5.474c3.023 0 5.474-2.451 5.474-5.474s-2.451-5.474-5.474-5.474zM4.385 23.114c-0.862 0.308-1.437 1.124-1.437 2.039v2.216c0 1.231 1.090 2.177 2.309 2.003l1.607-0.23c4.384-0.626 8.835-0.626 13.219 0l1.608 0.23c1.219 0.174 2.309-0.772 2.309-2.003v-2.216c0-0.915-0.575-1.732-1.437-2.039-5.878-2.099-12.301-2.099-18.178 0zM3.535 20.735c6.427-2.295 13.451-2.295 19.878 0 1.867 0.667 3.114 2.436 3.114 4.419v2.216c0 2.768-2.452 4.895-5.193 4.504l-1.607-0.23c-4.147-0.592-8.357-0.592-12.505 0l-1.607 0.23c-2.741 0.392-5.193-1.735-5.193-4.504v-2.216c0-1.983 1.246-3.752 3.114-4.419z"></path>
</svg>
