<!-- Generated by IcoMoon.io -->
<svg version="1.1" xmlns="http://www.w3.org/2000/svg" width="31" height="32" viewBox="0 0 31 32">
<title>authentic</title>
<path d="M29.768 14.536c0.746-0.995 0.963-2.294 0.58-3.48s-1.316-2.109-2.5-2.473c-0.5-0.155-0.937-0.47-1.244-0.896s-0.469-0.942-0.461-1.468c0.023-1.247-0.56-2.426-1.561-3.158s-2.294-0.927-3.464-0.521c-0.495 0.171-1.033 0.176-1.531 0.012s-0.93-0.485-1.231-0.916c-0.707-1.025-1.867-1.636-3.106-1.636s-2.4 0.611-3.106 1.636c-0.301 0.432-0.733 0.753-1.231 0.916s-1.035 0.159-1.531-0.012c-1.17-0.41-2.465-0.217-3.467 0.516s-1.584 1.915-1.558 3.163c0.008 0.527-0.154 1.042-0.461 1.468s-0.744 0.741-1.244 0.896c-1.177 0.374-2.099 1.301-2.473 2.485s-0.152 2.478 0.595 3.467c0.315 0.422 0.486 0.936 0.486 1.464s-0.17 1.042-0.486 1.464c-0.746 0.995-0.963 2.294-0.58 3.48s1.316 2.109 2.5 2.473c0.5 0.155 0.937 0.469 1.244 0.895s0.47 0.942 0.461 1.469c-0.026 1.248 0.556 2.429 1.558 3.162s2.297 0.926 3.467 0.516c0.495-0.171 1.033-0.175 1.531-0.012s0.93 0.485 1.231 0.916c0.707 1.025 1.867 1.636 3.106 1.636s2.4-0.611 3.106-1.636c0.301-0.432 0.733-0.753 1.231-0.916s1.035-0.159 1.531 0.012c1.17 0.407 2.463 0.212 3.464-0.52s1.584-1.912 1.561-3.158c-0.008-0.527 0.154-1.042 0.461-1.469s0.744-0.741 1.244-0.895c1.179-0.373 2.104-1.301 2.478-2.488s0.15-2.483-0.6-3.472c-0.314-0.422-0.483-0.934-0.483-1.461s0.169-1.039 0.483-1.461l-0 0zM28.67 18.298h-0c0.477 0.632 0.616 1.459 0.372 2.214s-0.839 1.341-1.594 1.569c-0.788 0.244-1.476 0.74-1.961 1.412s-0.739 1.485-0.725 2.315c0.016 0.792-0.353 1.542-0.989 2.007s-1.458 0.589-2.2 0.329c-0.777-0.273-1.62-0.285-2.405-0.034s-1.466 0.751-1.944 1.425c-0.449 0.652-1.187 1.041-1.974 1.041s-1.526-0.389-1.974-1.041c-0.711-1.024-1.873-1.633-3.114-1.634-0.418 0-0.834 0.071-1.228 0.209-0.743 0.26-1.565 0.137-2.201-0.329s-1.005-1.216-0.989-2.008c0.014-0.83-0.24-1.643-0.725-2.315s-1.173-1.168-1.96-1.412c-0.755-0.228-1.351-0.814-1.594-1.569s-0.105-1.582 0.372-2.213c0.496-0.664 0.765-1.472 0.765-2.302s-0.268-1.638-0.765-2.302c-0.477-0.632-0.616-1.459-0.372-2.214s0.839-1.341 1.594-1.569c0.787-0.244 1.474-0.738 1.958-1.409s0.739-1.482 0.727-2.311c-0.017-0.794 0.353-1.545 0.991-2.012s1.462-0.587 2.206-0.325c0.777 0.274 1.621 0.287 2.405 0.036s1.467-0.751 1.944-1.427c0.449-0.652 1.187-1.041 1.974-1.041s1.526 0.389 1.974 1.041c0.477 0.676 1.16 1.176 1.944 1.427s1.629 0.238 2.405-0.036c0.744-0.262 1.568-0.141 2.205 0.325s1.008 1.218 0.991 2.012c-0.012 0.829 0.243 1.64 0.727 2.311s1.172 1.166 1.959 1.409c0.755 0.228 1.35 0.814 1.594 1.569s0.105 1.582-0.372 2.214c-0.504 0.666-0.778 1.481-0.778 2.319s0.274 1.653 0.778 2.319l-0.020-0z"></path>
<path d="M16.285 9.042c-0.177-0.407-0.576-0.671-1.018-0.671s-0.841 0.263-1.018 0.671l-1.691 3.88-4.19 0.418c-0.443 0.043-0.818 0.347-0.953 0.774s-0.005 0.894 0.332 1.187l3.148 2.782-0.898 4.172c-0.091 0.433 0.079 0.88 0.433 1.14s0.83 0.285 1.21 0.064l3.631-2.142 3.631 2.142c0.38 0.221 0.854 0.196 1.21-0.064s0.525-0.707 0.433-1.139l-0.898-4.173 3.148-2.781c0.327-0.295 0.451-0.758 0.315-1.179s-0.506-0.722-0.943-0.768l-4.19-0.417-1.692-3.894zM18.612 17.179h0c-0.298 0.269-0.43 0.678-0.345 1.071l0.801 3.686-3.238-1.905c-0.346-0.203-0.772-0.203-1.118 0l-3.238 1.912 0.801-3.686c0.085-0.393-0.047-0.802-0.345-1.071l-2.803-2.517 3.735-0.376c0.405-0.047 0.752-0.314 0.904-0.696l1.505-3.477 1.505 3.477c0.152 0.381 0.499 0.649 0.904 0.696l3.728 0.376-2.796 2.51z"></path>
<path d="M23.948 10.051c-0.328 0.196-0.436 0.622-0.241 0.953 1.571 2.699 1.774 5.991 0.547 8.866s-3.74 4.99-6.766 5.697c-3.026 0.707-6.206-0.078-8.565-2.114s-3.615-5.082-3.384-8.203c0.231-3.121 1.922-5.945 4.554-7.607s5.893-1.963 8.781-0.812c0.172 0.077 0.368 0.080 0.542 0.008s0.312-0.213 0.38-0.39 0.063-0.373-0.016-0.546c-0.079-0.172-0.224-0.304-0.403-0.366-3.301-1.317-7.026-0.973-10.035 0.926s-4.941 5.125-5.205 8.691c-0.264 3.566 1.171 7.046 3.865 9.374s6.328 3.226 9.787 2.419c3.458-0.808 6.329-3.224 7.733-6.508s1.173-7.046-0.622-10.131c-0.091-0.163-0.244-0.282-0.423-0.33s-0.37-0.022-0.53 0.073l0-0z"></path>
<path d="M22.251 9.091c0.267 0.275 0.704 0.279 0.977 0.011s0.277-0.71 0.011-0.984c-0.518-0.518-1.084-0.983-1.692-1.391-0.143-0.158-0.349-0.241-0.56-0.225s-0.404 0.127-0.522 0.304c-0.119 0.177-0.15 0.398-0.086 0.601s0.217 0.365 0.416 0.44c0.524 0.367 1.012 0.783 1.457 1.245z"></path>
</svg>
