<!-- Generated by IcoMoon.io -->
<svg version="1.1" xmlns="http://www.w3.org/2000/svg" width="32" height="32" viewBox="0 0 32 32">
<title>calling-1</title>
<path fill="none" stroke-linejoin="miter" stroke-linecap="butt" stroke-miterlimit="4" stroke-width="1.5484" stroke="#000" d="M27.559 29.677c-3.228 3.228-11.493 0.195-18.462-6.774s-10.002-15.235-6.774-18.462l2.125-2.125c1.467-1.467 3.885-1.428 5.399 0.087l3.292 3.292c1.515 1.515 1.554 3.932 0.087 5.399l-0.456 0.456c-0.792 0.792-0.87 2.070-0.134 2.962 0.71 0.86 1.475 1.717 2.305 2.547s1.687 1.595 2.547 2.305c0.892 0.736 2.17 0.658 2.962-0.134l0.456-0.456c1.467-1.467 3.884-1.428 5.399 0.087l3.292 3.292c1.515 1.515 1.554 3.932 0.087 5.399l-2.125 2.125z"></path>
<path d="M24.472 11.443c0.162 0.396 0.614 0.585 1.010 0.423s0.585-0.614 0.423-1.010l-1.433 0.587zM21.16 6.006c-0.392-0.171-0.848 0.008-1.019 0.4s0.008 0.848 0.4 1.019l0.619-1.419zM22.839 8.995c0.724 0.724 1.268 1.559 1.633 2.448l1.433-0.587c-0.441-1.076-1.099-2.084-1.97-2.956l-1.095 1.095zM20.541 7.425c0.833 0.363 1.615 0.886 2.298 1.569l1.095-1.095c-0.823-0.823-1.766-1.454-2.774-1.894l-0.619 1.419z"></path>
<path d="M21.114 0.368c-0.402-0.146-0.846 0.062-0.992 0.464s0.062 0.846 0.464 0.992l0.527-1.456zM30.067 11.406c0.141 0.404 0.583 0.616 0.987 0.475s0.616-0.583 0.475-0.987l-1.461 0.512zM20.587 1.824c2.1 0.761 4.070 1.983 5.756 3.668l1.095-1.095c-1.849-1.849-4.015-3.193-6.323-4.029l-0.527 1.456zM26.343 5.492c1.727 1.728 2.968 3.755 3.724 5.914l1.461-0.512c-0.831-2.374-2.195-4.602-4.091-6.497l-1.095 1.095z"></path>
</svg>
