<!-- Generated by IcoMoon.io -->
<svg version="1.1" xmlns="http://www.w3.org/2000/svg" width="29" height="32" viewBox="0 0 29 32">
<title>cart</title>
<path d="M6.8 8v0.494c-3.627 0.575-6.4 3.717-6.4 7.506v8c0 4.197 3.403 7.6 7.6 7.6h12.8c4.197 0 7.6-3.403 7.6-7.6v-8c0-3.789-2.773-6.93-6.4-7.506v-0.494c0-4.197-3.403-7.6-7.6-7.6s-7.6 3.403-7.6 7.6zM6.8 10.939v1.861c0 0.663 0.537 1.2 1.2 1.2s1.2-0.537 1.2-1.2v-2h10.4v2c0 0.663 0.537 1.2 1.2 1.2s1.2-0.537 1.2-1.2v-1.861c2.293 0.542 4 2.602 4 5.061v8c0 2.872-2.328 5.2-5.2 5.2h-12.8c-2.872 0-5.2-2.328-5.2-5.2v-8c0-2.459 1.707-4.519 4-5.061zM19.6 8.4h-10.4v-0.4c0-2.872 2.328-5.2 5.2-5.2s5.2 2.328 5.2 5.2v0.4z"></path>
</svg>
