<!-- Generated by IcoMoon.io -->
<svg version="1.1" xmlns="http://www.w3.org/2000/svg" width="32" height="32" viewBox="0 0 32 32">
<title>compare</title>
<path d="M11.384 20.51c0-0.69-0.559-1.249-1.249-1.249h-5.572c-0.69 0-1.249-0.559-1.249-1.249s0.559-1.249 1.249-1.249h5.572c2.069 0 3.747 1.677 3.747 3.747v5.572c0 0.69-0.559 1.249-1.249 1.249s-1.249-0.559-1.249-1.249v-5.572z"></path>
<path d="M0.549 30.097c-0.732-0.732-0.732-1.918 0-2.649l9.415-9.415c0.732-0.732 1.918-0.732 2.649 0s0.732 1.918 0 2.649l-9.415 9.415c-0.732 0.732-1.918 0.732-2.649 0z"></path>
<path d="M20.51 11.385c-0.69 0-1.249-0.559-1.249-1.249v-5.572c0-0.69-0.559-1.249-1.249-1.249s-1.249 0.559-1.249 1.249l-0 5.572c0 2.069 1.677 3.747 3.747 3.747h5.572c0.69 0 1.249-0.559 1.249-1.249s-0.559-1.249-1.249-1.249h-5.572z"></path>
<path d="M30.097 0.549c-0.732-0.732-1.918-0.732-2.649 0l-9.415 9.415c-0.732 0.732-0.732 1.918 0 2.649s1.918 0.732 2.649 0l9.415-9.415c0.732-0.732 0.732-1.918 0-2.649z"></path>
</svg>
