<!-- Generated by IcoMoon.io -->
<svg version="1.1" xmlns="http://www.w3.org/2000/svg" width="35" height="32" viewBox="0 0 35 32">
<title>delivery-1</title>
<path d="M0.683 1.767h3.874l2.75 24.254c0.039 0.345 0.331 0.607 0.679 0.607h3.742c-0.37 0.523-0.592 1.159-0.592 1.847 0 1.772 1.442 3.214 3.214 3.214s3.214-1.442 3.214-3.214c0-0.689-0.222-1.324-0.592-1.847h8.938c-0.37 0.523-0.592 1.159-0.592 1.847 0 1.772 1.442 3.214 3.214 3.214s3.214-1.442 3.214-3.214c0-0.689-0.222-1.324-0.592-1.847h2.334c0.377 0 0.683-0.306 0.683-0.683s-0.306-0.683-0.683-0.683h-24.892l-2.75-24.254c-0.039-0.345-0.331-0.606-0.679-0.606h-4.484c-0.377 0-0.683 0.306-0.683 0.683s0.306 0.683 0.683 0.683h-0zM16.198 28.475c0 1.019-0.829 1.847-1.847 1.847s-1.847-0.829-1.847-1.847 0.829-1.847 1.847-1.847c1.019 0 1.847 0.829 1.847 1.847zM30.379 28.475c0 1.019-0.829 1.847-1.847 1.847s-1.847-0.829-1.847-1.847 0.829-1.847 1.847-1.847c1.019 0 1.847 0.829 1.847 1.847z"></path>
<path d="M10.691 22.912h20.444c0.377 0 0.683-0.306 0.683-0.683v-17.158c0-0.377-0.306-0.683-0.683-0.683h-20.444c-0.377 0-0.683 0.306-0.683 0.683v17.158c0 0.377 0.306 0.683 0.683 0.683zM22.851 5.754v6.060l-1.445-1.507c-0.129-0.134-0.307-0.21-0.493-0.21s-0.364 0.076-0.493 0.21l-1.445 1.507v-6.060l3.877-0zM11.374 5.754h6.233v7.76c0 0.279 0.169 0.53 0.428 0.634s0.555 0.040 0.748-0.161l2.128-2.219 2.128 2.219c0.132 0.137 0.311 0.21 0.493 0.21 0.086 0 0.172-0.016 0.255-0.049 0.259-0.104 0.428-0.355 0.428-0.634v-7.76h6.233v15.79h-19.077l0.001-15.79z"></path>
</svg>
