<!-- Generated by IcoMoon.io -->
<svg version="1.1" xmlns="http://www.w3.org/2000/svg" width="44" height="32" viewBox="0 0 44 32">
<title>eye</title>
<path d="M21.538 3.692c-7.607 0-14.227 4.221-17.634 10.451-0.283 0.518-0.283 1.143-0 1.661 3.407 6.23 10.027 10.452 17.634 10.452s14.227-4.221 17.634-10.451c0.283-0.518 0.283-1.143 0-1.661-3.407-6.23-10.027-10.452-17.634-10.452zM0.665 12.372c4.030-7.368 11.866-12.372 20.873-12.372s16.844 5.004 20.873 12.372c0.887 1.622 0.887 3.583 0 5.205-4.030 7.368-11.866 12.372-20.873 12.372s-16.844-5.004-20.873-12.372c-0.887-1.622-0.887-3.583 0-5.205zM21.538 10.256c-2.606 0-4.718 2.112-4.718 4.718s2.112 4.718 4.718 4.718c2.606 0 4.718-2.112 4.718-4.718s-2.112-4.718-4.718-4.718zM13.128 14.974c0-4.645 3.765-8.41 8.41-8.41s8.41 3.765 8.41 8.41-3.765 8.41-8.41 8.41c-4.645 0-8.41-3.765-8.41-8.41z"></path>
</svg>
