<!-- Generated by IcoMoon.io -->
<svg version="1.1" xmlns="http://www.w3.org/2000/svg" width="32" height="32" viewBox="0 0 32 32">
<title>headphone</title>
<path d="M0.4 16c0-8.616 6.984-15.6 15.6-15.6s15.6 6.984 15.6 15.6v11.2c0 2.43-1.97 4.4-4.4 4.4h-1.6c-2.43 0-4.4-1.97-4.4-4.4v-6.4c0-2.43 1.97-4.4 4.4-4.4h1.6c0.72 0 1.4 0.173 2 0.48v-0.88c0-7.29-5.91-13.2-13.2-13.2s-13.2 5.91-13.2 13.2v0.88c0.6-0.307 1.28-0.48 2-0.48h1.6c2.43 0 4.4 1.97 4.4 4.4v6.4c0 2.43-1.97 4.4-4.4 4.4h-1.6c-2.43 0-4.4-1.97-4.4-4.4v-11.2zM2.8 20.8v6.4c0 1.105 0.895 2 2 2h1.6c1.105 0 2-0.895 2-2v-6.4c0-1.105-0.895-2-2-2h-1.6c-1.105 0-2 0.895-2 2zM29.2 20.8c0-1.105-0.895-2-2-2h-1.6c-1.105 0-2 0.895-2 2v6.4c0 1.105 0.895 2 2 2h1.6c1.105 0 2-0.895 2-2v-6.4z"></path>
</svg>
