<!-- Generated by IcoMoon.io -->
<svg version="1.1" xmlns="http://www.w3.org/2000/svg" width="35" height="32" viewBox="0 0 35 32">
<title>heart-1</title>
<path d="M30.069 5.23c-3.074-3.24-8.031-3.24-11.105 0-0.742 0.782-1.987 0.782-2.729 0-3.074-3.24-8.031-3.24-11.105 0-3.108 3.275-3.108 8.61 0 11.886l9.858 10.389c1.42 1.496 3.803 1.496 5.223 0l9.858-10.389c3.108-3.275 3.108-8.61 0-11.886zM17.6 3.201c4.043-3.856 10.313-3.73 14.21 0.377 3.987 4.201 3.987 10.988 0 15.19l-9.858 10.389c-2.366 2.493-6.339 2.493-8.705 0l-9.858-10.389c-3.987-4.201-3.987-10.988 0-15.19 3.897-4.107 10.167-4.233 14.21-0.377z"></path>
</svg>
