<!-- Generated by IcoMoon.io -->
<svg version="1.1" xmlns="http://www.w3.org/2000/svg" width="32" height="32" viewBox="0 0 32 32">
<title>home</title>
<path d="M18.688 3.351c-1.799-1.42-4.338-1.42-6.137 0l-8.381 6.617c-1.19 0.939-1.884 2.371-1.884 3.887v9.999c0 2.735 2.217 4.952 4.952 4.952h2.286c0.21 0 0.381-0.171 0.381-0.381v-4.571c0-2.314 1.876-4.19 4.19-4.19h3.048c2.314 0 4.19 1.876 4.19 4.19v4.571c0 0.21 0.171 0.381 0.381 0.381h2.286c2.735 0 4.952-2.217 4.952-4.952v-9.999c0-1.516-0.694-2.948-1.884-3.887l-8.381-6.617zM11.134 1.557c2.63-2.076 6.34-2.076 8.97 0l8.381 6.617c1.739 1.373 2.753 3.466 2.753 5.681v9.999c0 3.998-3.241 7.238-7.238 7.238h-2.286c-1.473 0-2.667-1.194-2.667-2.667v-4.571c0-1.052-0.853-1.905-1.905-1.905h-3.048c-1.052 0-1.905 0.853-1.905 1.905v4.571c0 1.473-1.194 2.667-2.667 2.667h-2.286c-3.998 0-7.238-3.241-7.238-7.238v-9.999c0-2.215 1.014-4.308 2.753-5.681l8.381-6.617z"></path>
</svg>
