<!-- Generated by IcoMoon.io -->
<svg version="1.1" xmlns="http://www.w3.org/2000/svg" width="39" height="32" viewBox="0 0 39 32">
<title>mail</title>
<path d="M0 10.222c0-5.646 4.577-10.222 10.222-10.222h17.778c5.645 0 10.222 4.577 10.222 10.222v10.667c0 5.645-4.577 10.222-10.222 10.222h-17.778c-5.646 0-10.222-4.577-10.222-10.222v-10.667zM10.222 2.667c-4.173 0-7.556 3.383-7.556 7.556v10.667c0 4.173 3.383 7.556 7.556 7.556h17.778c4.173 0 7.556-3.383 7.556-7.556v-10.667c0-4.173-3.383-7.556-7.556-7.556h-17.778zM7.378 9.422c0.442-0.589 1.278-0.709 1.867-0.267l8.533 6.4c0.79 0.593 1.877 0.593 2.667 0l8.533-6.4c0.589-0.442 1.425-0.322 1.867 0.267s0.323 1.425-0.267 1.867l-8.533 6.4c-1.738 1.304-4.128 1.304-5.867 0l-8.533-6.4c-0.589-0.442-0.708-1.278-0.267-1.867z"></path>
</svg>
