<!-- Generated by IcoMoon.io -->
<svg version="1.1" xmlns="http://www.w3.org/2000/svg" width="32" height="32" viewBox="0 0 32 32">
<title>message-circle</title>
<path d="M1.071 29.228v0zM2.602 30.759v0zM7.796 28.924v0zM8.659 29.010v0zM2.889 23.052v0zM2.958 23.887v0zM1.881 16c0-7.87 6.38-14.25 14.25-14.25v-1.5c-8.699 0-15.75 7.052-15.75 15.75h1.5zM3.551 22.699c-1.065-1.996-1.67-4.276-1.67-6.699h-1.5c0 2.675 0.668 5.197 1.846 7.406l1.323-0.706zM1.778 29.478l1.887-5.341-1.414-0.5-1.887 5.341 1.414 0.5zM2.352 30.052c-0.357 0.126-0.7-0.218-0.574-0.574l-1.414-0.5c-0.546 1.546 0.943 3.034 2.488 2.488l-0.5-1.414zM7.546 28.217l-5.194 1.835 0.5 1.414 5.194-1.835-0.5-1.414zM16.131 30.25c-2.586 0-5.008-0.688-7.097-1.89l-0.748 1.3c2.311 1.33 4.99 2.090 7.846 2.090v-1.5zM30.381 16c0 7.87-6.38 14.25-14.25 14.25v1.5c8.698 0 15.75-7.052 15.75-15.75h-1.5zM16.131 1.75c7.87 0 14.25 6.38 14.25 14.25h1.5c0-8.698-7.052-15.75-15.75-15.75v1.5zM8.046 29.631c0.067-0.024 0.155-0.020 0.239 0.029l0.748-1.3c-0.441-0.254-0.983-0.321-1.487-0.143l0.5 1.414zM2.227 23.406c0.044 0.082 0.047 0.166 0.024 0.231l1.414 0.5c0.171-0.485 0.116-1.006-0.115-1.437l-1.323 0.706z"></path>
<path stroke-linejoin="miter" stroke-linecap="butt" stroke-miterlimit="4" stroke-width="1" stroke="#000" fill="#000" d="M10.081 16.075c0 0.759-0.616 1.375-1.375 1.375s-1.375-0.616-1.375-1.375c0-0.759 0.616-1.375 1.375-1.375s1.375 0.616 1.375 1.375z"></path>
<path stroke-linejoin="miter" stroke-linecap="butt" stroke-miterlimit="4" stroke-width="1" stroke="#000" fill="#000" d="M17.581 16.075c0 0.759-0.616 1.375-1.375 1.375s-1.375-0.616-1.375-1.375c0-0.759 0.616-1.375 1.375-1.375s1.375 0.616 1.375 1.375z"></path>
<path stroke-linejoin="miter" stroke-linecap="butt" stroke-miterlimit="4" stroke-width="1" stroke="#000" fill="#000" d="M25.081 16.075c0 0.759-0.616 1.375-1.375 1.375s-1.375-0.616-1.375-1.375c0-0.759 0.616-1.375 1.375-1.375s1.375 0.616 1.375 1.375z"></path>
</svg>
