<!-- Generated by IcoMoon.io -->
<svg version="1.1" xmlns="http://www.w3.org/2000/svg" width="24" height="32" viewBox="0 0 24 32">
<title>nutrition</title>
<path d="M23.467 1.6c0-0.424-0.168-0.831-0.468-1.131s-0.707-0.469-1.131-0.469h-19.2c-0.707 0.001-1.385 0.282-1.885 0.782s-0.781 1.178-0.782 1.885v26.666c0.001 0.707 0.282 1.385 0.782 1.885s1.178 0.781 1.885 0.782h18.134c0.424 0 0.831-0.169 1.131-0.468s0.469-0.707 0.469-1.131v-2.758c0.312-0.111 0.581-0.315 0.773-0.585s0.294-0.593 0.294-0.924l-0-24.533zM1.067 2.667c0.001-0.33 0.105-0.651 0.296-0.92s0.46-0.472 0.771-0.582v25.562c-0.386 0.077-0.751 0.239-1.067 0.474v-24.534zM21.334 30.4c0 0.142-0.056 0.277-0.156 0.377s-0.236 0.156-0.377 0.156h-18.134c-0.572 0-1.1-0.305-1.385-0.8s-0.286-1.105 0-1.6c0.286-0.495 0.814-0.8 1.385-0.8h18.667l0 2.667zM22.4 26.133c0 0.142-0.056 0.277-0.156 0.377s-0.236 0.156-0.377 0.156h-18.666v-25.6h18.666c0.142 0 0.277 0.056 0.377 0.156s0.156 0.236 0.156 0.377v24.533z"></path>
<path d="M15.525 6.4c-0.767 0.004-1.521 0.201-2.192 0.574v-0.574c0-1.693 1.18-2.141 1.24-2.162 0.271-0.1 0.413-0.398 0.32-0.671s-0.386-0.424-0.662-0.339c-0.669 0.265-1.221 0.761-1.555 1.399-0.313-0.405-0.707-0.742-1.156-0.988-1.676-0.907-3.38-0.177-4.035 0.181-0.18 0.099-0.328 0.248-0.425 0.429s-0.141 0.386-0.124 0.591c0.063 0.833 0.336 1.636 0.793 2.334-1.565 1.218-2.456 3.11-2.396 5.093 0 3.235 2.153 5.867 4.8 5.867v-0c0.961-0.012 1.894-0.332 2.659-0.914 0.773 0.579 1.709 0.899 2.674 0.914 2.647 0 4.8-2.632 4.8-5.867s-2.127-5.866-4.741-5.866v-0zM8 4.756c0.501-0.275 1.798-0.841 3.013-0.18h-0c0.711 0.346 1.188 1.040 1.253 1.828v0.571c-0.671-0.373-1.425-0.571-2.192-0.574-0.481 0-0.958 0.090-1.406 0.263-0.391-0.564-0.622-1.223-0.669-1.908zM15.467 17.067c-0.737-0.015-1.45-0.262-2.039-0.705-0.181-0.135-0.401-0.208-0.627-0.208s-0.446 0.073-0.627 0.208c-0.589 0.443-1.303 0.69-2.040 0.705-2.058 0-3.733-2.153-3.733-4.8s1.648-4.8 3.675-4.8h-0c0.866 0.015 1.698 0.338 2.347 0.91 0.208 0.207 0.544 0.207 0.753 0 0.65-0.574 1.484-0.896 2.351-0.91 2.027 0 3.675 2.153 3.675 4.8s-1.675 4.8-3.733 4.8z"></path>
<path d="M15.467 29.867h2.667c0.295 0 0.533-0.239 0.533-0.533s-0.239-0.533-0.533-0.533h-2.667c-0.294 0-0.533 0.239-0.533 0.533s0.239 0.533 0.533 0.533z"></path>
<path d="M4.8 29.867h8.533c0.295 0 0.533-0.239 0.533-0.533s-0.239-0.533-0.533-0.533h-8.533c-0.295 0-0.533 0.239-0.533 0.533s0.239 0.533 0.533 0.533z"></path>
<path d="M19.2 20.8h-12.8c-0.295 0-0.534 0.239-0.534 0.533s0.239 0.533 0.534 0.533h12.8c0.294 0 0.533-0.239 0.533-0.533s-0.239-0.533-0.533-0.533z"></path>
<path d="M16.534 23.467h-7.467c-0.294 0-0.533 0.239-0.533 0.533s0.239 0.533 0.533 0.533h7.467c0.295 0 0.533-0.239 0.533-0.533s-0.239-0.533-0.533-0.533z"></path>
<path d="M8.711 9.111c-0.834 0.834-1.284 1.977-1.244 3.156 0 0.294 0.239 0.533 0.534 0.533s0.533-0.239 0.533-0.533c-0.040-0.876 0.282-1.73 0.889-2.362 0.108-0.094 0.173-0.227 0.182-0.369s-0.040-0.283-0.135-0.389c-0.096-0.107-0.23-0.17-0.372-0.177s-0.282 0.044-0.387 0.142z"></path>
</svg>
