<!-- Generated by IcoMoon.io -->
<svg version="1.1" xmlns="http://www.w3.org/2000/svg" width="33" height="32" viewBox="0 0 33 32">
<title>organic</title>
<path d="M29.705 14.066c-0.282 0-0.51-0.228-0.51-0.51v-0.026c0-1.548-0.826-2.979-2.167-3.753s-2.993-0.774-4.333 0c-1.341 0.774-2.167 2.205-2.167 3.753 0 0.135-0.053 0.265-0.149 0.36s-0.225 0.149-0.361 0.149c-0.281 0-0.51-0.228-0.51-0.51-0.004-1.912 1.012-3.682 2.665-4.642s3.694-0.965 5.353-0.013c1.658 0.952 2.683 2.717 2.687 4.629 0.014 0.144-0.033 0.287-0.13 0.394s-0.235 0.168-0.38 0.167z"></path>
<path d="M18.113 14.076c-0.238 0.008-0.45-0.151-0.51-0.382-0.083-0.345-0.259-0.661-0.51-0.912-0.378-0.373-0.886-0.583-1.417-0.586-0.197-0.001-0.376-0.117-0.459-0.296-0.083-0.181-0.053-0.394 0.076-0.545 0.399-0.475 0.557-1.107 0.428-1.714s-0.53-1.121-1.088-1.392c-0.558-0.272-1.21-0.271-1.767 0.002-0.248 0.115-0.543 0.014-0.668-0.229-0.092-0.19-0.216-0.363-0.367-0.51-0.353-0.347-0.82-0.554-1.315-0.583s-0.982 0.125-1.372 0.43c-0.115 0.091-0.264 0.128-0.408 0.102s-0.271-0.114-0.347-0.24c-0.119-0.186-0.259-0.357-0.418-0.51-0.534-0.536-1.258-0.837-2.014-0.838s-1.482 0.298-2.017 0.832c-0.535 0.534-0.836 1.259-0.837 2.015-0.005 0.093-0.005 0.187 0 0.28 0.062 0.658 0.353 1.273 0.821 1.738 0.163 0.165 0.346 0.309 0.545 0.428 0.127 0.075 0.215 0.2 0.243 0.345s-0.009 0.294-0.1 0.41c-0.36 0.442-0.511 1.019-0.413 1.58 0.048 0.281-0.142 0.548-0.423 0.596s-0.549-0.142-0.597-0.423c-0.109-0.675 0.015-1.367 0.352-1.963-0.108-0.086-0.212-0.178-0.311-0.275-0.633-0.636-1.028-1.472-1.116-2.365v-0.377c-0.002-1.031 0.407-2.019 1.136-2.747s1.718-1.136 2.748-1.133c1.030 0.003 2.017 0.416 2.742 1.148 0.092 0.097 0.184 0.199 0.265 0.301l-0-0c0.574-0.315 1.234-0.435 1.882-0.343s1.249 0.391 1.712 0.853c0.114 0.114 0.22 0.237 0.316 0.367 0.748-0.235 1.557-0.171 2.259 0.179s1.24 0.958 1.502 1.696c0.262 0.739 0.228 1.55-0.096 2.264 1.016 0.31 1.791 1.137 2.034 2.172 0.068 0.272-0.096 0.547-0.367 0.617l-0.127 0.010z"></path>
<path d="M10.818 14.076c-0.136 0.001-0.266-0.052-0.362-0.148l-4.043-4.048c-0.2-0.2-0.2-0.524 0-0.724s0.524-0.2 0.724 0l4.043 4.048c0.096 0.096 0.151 0.226 0.151 0.362s-0.054 0.266-0.151 0.362c-0.096 0.096-0.226 0.149-0.362 0.148z"></path>
<path d="M11.547 14.076c-0.192-0-0.367-0.109-0.454-0.28-1.070-2.116-0.484-3.421 0.194-4.139v0c0.194-0.206 0.518-0.215 0.724-0.020s0.215 0.518 0.020 0.724c-0.663 0.698-0.673 1.703-0.031 2.977v0c0.126 0.25 0.026 0.556-0.224 0.683-0.070 0.038-0.149 0.057-0.229 0.056z"></path>
<path d="M22.038 32h-11.521c-1.692 0.002-3.321-0.644-4.552-1.805-5.669-5.358-7.070-11.761-5.159-14.855 0.092-0.151 0.256-0.244 0.433-0.245h30.077c0.177 0.001 0.341 0.093 0.433 0.245 1.912 3.094 0.51 9.497-5.159 14.855-1.231 1.161-2.86 1.806-4.552 1.805h0zM1.535 16.115c-1.855 3.497 1.157 9.569 5.128 13.336 1.040 0.986 2.42 1.534 3.854 1.529h11.521c1.434 0.005 2.814-0.543 3.854-1.529 3.971-3.752 6.984-9.839 5.128-13.336h-29.486z"></path>
<path d="M20.983 8.285c-1.152 0-3.706-0.204-5.358-1.856-2.146-2.156-1.861-5.796-1.845-5.949 0.021-0.245 0.214-0.44 0.459-0.464 0.158 0 3.818-0.311 5.959 1.825 2.146 2.141 1.861 5.806 1.845 5.959-0.021 0.247-0.217 0.443-0.464 0.464-0.036 0.005-0.255 0.020-0.596 0.020zM14.779 1.015c0 0.974 0.158 3.293 1.565 4.695s3.686 1.529 4.675 1.529h0.026c0-0.974-0.158-3.298-1.565-4.7-1.407-1.376-3.711-1.529-4.7-1.524l-0-0z"></path>
</svg>
