<!-- Generated by IcoMoon.io -->
<svg version="1.1" xmlns="http://www.w3.org/2000/svg" width="32" height="32" viewBox="0 0 32 32">
<title>package</title>
<path d="M16.699 2.928c-0.448-0.187-0.951-0.187-1.399 0l-11.010 4.587 4.436 1.848 11.709-4.879-3.737-1.557zM23.273 5.667l-11.709 4.879 4.436 1.848 11.709-4.879-4.436-1.849zM29.455 9.151l-12.364 5.152v14.606l12.14-5.058c0.135-0.056 0.224-0.189 0.224-0.336v-14.364zM14.909 28.909v-14.606l-12.364-5.152v14.364c0 0.147 0.088 0.279 0.224 0.336l12.14 5.058zM14.462 0.914c0.985-0.41 2.092-0.41 3.077 0l13.427 5.594c0.406 0.169 0.671 0.567 0.671 1.007v16c0 1.028-0.618 1.954-1.566 2.35l-13.65 5.688c-0.269 0.112-0.571 0.112-0.839 0l-13.65-5.688c-0.949-0.395-1.566-1.322-1.566-2.35v-16c0-0.44 0.265-0.838 0.671-1.007l13.427-5.594z"></path>
</svg>
