<!-- Generated by IcoMoon.io -->
<svg version="1.1" xmlns="http://www.w3.org/2000/svg" width="36" height="32" viewBox="0 0 36 32">
<title>payment-1</title>
<path d="M32.594 0h-4.148c-0.327 0-0.593 0.265-0.593 0.593s0.265 0.593 0.593 0.593h4.148c0.494 0.026 0.958 0.246 1.291 0.612s0.508 0.849 0.487 1.343v3.97h-33.185v-3.97c-0.021-0.494 0.154-0.977 0.487-1.343s0.797-0.586 1.291-0.612h20.148c0.327 0 0.593-0.265 0.593-0.593s-0.265-0.593-0.593-0.593h-20.148c-0.809 0.025-1.575 0.369-2.131 0.958s-0.854 1.374-0.832 2.183v19.793c-0.022 0.809 0.277 1.594 0.832 2.183s1.322 0.933 2.131 0.958h18.37v4.148c0 0.471 0.187 0.924 0.521 1.257s0.786 0.521 1.257 0.521h7.111c0.471 0 0.924-0.187 1.257-0.521s0.521-0.786 0.521-1.257v-4.148h0.593c0.809-0.025 1.575-0.369 2.131-0.958s0.854-1.374 0.832-2.183v-19.793c0.022-0.809-0.277-1.594-0.832-2.183s-1.322-0.933-2.131-0.958h0zM30.816 30.222c0 0.157-0.062 0.308-0.174 0.419s-0.262 0.174-0.419 0.174h-7.111c-0.327 0-0.593-0.265-0.593-0.593v-5.926c0-0.327 0.265-0.593 0.593-0.593h7.111c0.157 0 0.308 0.062 0.419 0.174s0.174 0.262 0.174 0.419v5.926zM29.038 22.519h-4.741v-1.185c0-0.847 0.452-1.629 1.185-2.053s1.637-0.423 2.37 0c0.733 0.424 1.185 1.206 1.185 2.053v1.185zM32.001 24.889v-0.593c0-0.471-0.187-0.924-0.521-1.257s-0.786-0.521-1.257-0.521v-1.185c0-1.27-0.678-2.444-1.778-3.079s-2.456-0.635-3.556 0c-1.1 0.635-1.778 1.809-1.778 3.079v1.185c-0.471 0-0.924 0.187-1.257 0.521s-0.521 0.786-0.521 1.257v0.593h-18.37c-0.494-0.026-0.958-0.246-1.291-0.612s-0.508-0.849-0.487-1.343v-14.637h33.185v14.637c0.021 0.494-0.154 0.977-0.487 1.343s-0.797 0.586-1.291 0.612h-0.593z"></path>
<path d="M25.483 1.185h0.593c0.327 0 0.593-0.265 0.593-0.593s-0.265-0.593-0.593-0.593h-0.593c-0.327 0-0.593 0.265-0.593 0.593s0.265 0.593 0.593 0.593z"></path>
<path d="M26.668 24.889c-0.56 0.004-1.086 0.273-1.418 0.724s-0.432 1.033-0.27 1.569c0.162 0.536 0.568 0.965 1.095 1.156v0.699c0 0.327 0.265 0.593 0.593 0.593s0.593-0.265 0.593-0.593v-0.699c0.527-0.191 0.933-0.62 1.095-1.156s0.063-1.118-0.27-1.569c-0.332-0.451-0.858-0.72-1.418-0.724h0zM26.668 27.259c-0.327 0-0.593-0.265-0.593-0.593s0.265-0.593 0.593-0.593c0.327 0 0.593 0.265 0.593 0.593s-0.265 0.593-0.593 0.593z"></path>
<path d="M9.483 13.63h-3.556c-0.471 0-0.924 0.187-1.257 0.521s-0.521 0.786-0.521 1.257v3.556c0 0.471 0.187 0.924 0.521 1.257s0.786 0.521 1.257 0.521h3.556c0.471 0 0.924-0.187 1.257-0.521s0.521-0.786 0.521-1.257v-3.556c0-0.471-0.187-0.924-0.521-1.257s-0.786-0.521-1.257-0.521zM10.075 18.963c0 0.157-0.062 0.308-0.174 0.419s-0.262 0.174-0.419 0.174h-3.556c-0.327 0-0.593-0.265-0.593-0.593v-3.556c0-0.327 0.265-0.593 0.593-0.593h3.556c0.157 0 0.308 0.062 0.419 0.174s0.174 0.262 0.174 0.419v3.556z"></path>
<path d="M5.335 3.556c-0.327 0-0.593 0.265-0.593 0.593s0.265 0.593 0.593 0.593h1.778c0.327 0 0.593-0.265 0.593-0.593s-0.265-0.593-0.593-0.593h-1.778z"></path>
<path d="M10.075 3.556c-0.327 0-0.593 0.265-0.593 0.593s0.265 0.593 0.593 0.593h1.778c0.327 0 0.593-0.265 0.593-0.593s-0.265-0.593-0.593-0.593h-1.778z"></path>
<path d="M14.816 3.556c-0.327 0-0.593 0.265-0.593 0.593s0.265 0.593 0.593 0.593h1.778c0.327 0 0.593-0.265 0.593-0.593s-0.265-0.593-0.593-0.593h-1.778z"></path>
</svg>
