<!-- Generated by IcoMoon.io -->
<svg version="1.1" xmlns="http://www.w3.org/2000/svg" width="32" height="32" viewBox="0 0 32 32">
<title>plane</title>
<path d="M26.645 1.596c2.323-0.774 4.533 1.436 3.759 3.759l-7.705 23.116c-0.813 2.439-4.131 2.764-5.402 0.529l-4.716-8.294c-0.305-0.537-0.749-0.981-1.286-1.286l-8.294-4.716c-2.235-1.271-1.91-4.589 0.529-5.402l23.116-7.705zM28.236 4.632c0.179-0.536-0.331-1.046-0.867-0.867l-23.116 7.705c-0.563 0.188-0.638 0.953-0.122 1.247l8.294 4.716c0.111 0.063 0.22 0.13 0.326 0.2l2.877-2.877c0.446-0.446 1.17-0.446 1.616 0s0.446 1.17 0 1.616l-2.876 2.877c0.070 0.106 0.137 0.215 0.2 0.326l4.716 8.294c0.293 0.516 1.059 0.441 1.247-0.122l7.705-23.116z"></path>
</svg>
