<!-- Generated by IcoMoon.io -->
<svg version="1.1" xmlns="http://www.w3.org/2000/svg" width="32" height="32" viewBox="0 0 32 32">
<title>product</title>
<path d="M17.66 32h-15.47c-0.581 0-1.138-0.231-1.548-0.642s-0.642-0.968-0.642-1.548v-21.309c0-0.581 0.231-1.138 0.642-1.548s0.968-0.642 1.548-0.642h19.68c0.581 0 1.138 0.231 1.548 0.642s0.642 0.968 0.642 1.548v2.34c0 0.276-0.224 0.5-0.5 0.5s-0.5-0.224-0.5-0.5v-2.34c-0.001-0.315-0.127-0.617-0.35-0.84s-0.525-0.349-0.84-0.35h-19.68c-0.315 0.001-0.617 0.127-0.84 0.35s-0.349 0.525-0.35 0.84v21.309c0.001 0.315 0.127 0.617 0.35 0.84s0.525 0.349 0.84 0.35h15.47c0.276 0 0.5 0.224 0.5 0.5s-0.224 0.5-0.5 0.5z"></path>
<path d="M10.39 27.345h-9.89c-0.276 0-0.5-0.224-0.5-0.5s0.224-0.5 0.5-0.5h9.89c0.464 0 0.91-0.184 1.239-0.512s0.514-0.773 0.516-1.238v-10.895c0-0.465-0.185-0.912-0.514-1.241s-0.775-0.514-1.241-0.514h-7.39c-0.276 0-0.5-0.224-0.5-0.5s0.224-0.5 0.5-0.5h7.39c0.731 0 1.431 0.29 1.948 0.807s0.807 1.217 0.807 1.948v10.895c-0.001 0.73-0.292 1.429-0.809 1.945s-1.217 0.805-1.946 0.805l0 0z"></path>
<path d="M5.355 7.29c-0.276 0-0.5-0.224-0.5-0.5v-2.64c0-0.276 0.224-0.5 0.5-0.5h13.35c0.133 0 0.26 0.053 0.354 0.146s0.146 0.221 0.146 0.354v2.64c0 0.276-0.224 0.5-0.5 0.5h-13.35zM5.855 6.29h12.35l0-1.64h-12.35l-0 1.64z"></path>
<path d="M19.954 4.65h-15.85c-0.281 0-0.552-0.112-0.751-0.31s-0.312-0.468-0.313-0.75v-2.53c0.001-0.282 0.114-0.551 0.313-0.75s0.47-0.31 0.751-0.31h15.85c0.278 0.005 0.543 0.119 0.738 0.317s0.305 0.465 0.307 0.743v2.53c-0.001 0.278-0.111 0.545-0.307 0.743s-0.46 0.312-0.738 0.317v0zM4.105 1c-0.034 0-0.062 0.026-0.065 0.060v2.53c0 0.017 0.007 0.033 0.019 0.044s0.029 0.017 0.046 0.016h15.85c0.027-0.007 0.046-0.032 0.045-0.060v-2.53c-0.001-0.027-0.019-0.052-0.045-0.060h-15.85z"></path>
<path d="M29.999 32h-9.18c-0.53 0-1.039-0.211-1.414-0.586s-0.586-0.884-0.586-1.414v-12.69c0-0.276 0.224-0.5 0.5-0.5h12.18c0.133 0 0.26 0.053 0.354 0.146s0.146 0.221 0.146 0.354v12.69c0 0.531-0.211 1.039-0.586 1.414s-0.884 0.586-1.414 0.586zM19.82 17.81v12.19c0 0.265 0.105 0.52 0.293 0.707s0.442 0.293 0.707 0.293h9.18c0.265 0 0.52-0.105 0.707-0.293s0.293-0.442 0.293-0.707v-12.19h-11.18z"></path>
<path d="M31.5 17.81h-12.18c-0.276 0-0.5-0.224-0.5-0.5v-3c0-0.53 0.211-1.039 0.586-1.414s0.884-0.586 1.414-0.586h9.18c0.531 0 1.039 0.211 1.414 0.586s0.586 0.884 0.586 1.414v3c0 0.133-0.053 0.26-0.146 0.354s-0.221 0.146-0.354 0.146zM19.82 16.81h11.18v-2.5c0-0.265-0.105-0.52-0.293-0.707s-0.442-0.293-0.707-0.293h-9.18c-0.265 0-0.52 0.105-0.707 0.293s-0.293 0.442-0.293 0.707l0 2.5z"></path>
<path d="M24.060 29.5c-0.088-0.001-0.175-0.025-0.25-0.070-0.206-0.118-0.299-0.365-0.225-0.59l1.1-3.34h-2.5c-0.192-0-0.367-0.111-0.45-0.285s-0.060-0.38 0.060-0.53l4.14-5.185c0.147-0.181 0.4-0.237 0.609-0.134s0.32 0.337 0.266 0.564l-0.77 3.13 2.65 0.17c0.191 0.013 0.358 0.133 0.43 0.31 0.063 0.171 0.029 0.362-0.090 0.5l-4.595 5.27c-0.091 0.115-0.228 0.185-0.375 0.19zM23.21 24.5h2.17c0.161 0.001 0.312 0.079 0.405 0.21 0.094 0.13 0.12 0.298 0.070 0.45l-0.545 1.64 2.3-2.615-2.23-0.145c-0.148-0.008-0.286-0.081-0.375-0.2-0.087-0.12-0.116-0.272-0.080-0.415l0.375-1.5-2.090 2.575z"></path>
</svg>
