<!-- Generated by IcoMoon.io -->
<svg version="1.1" xmlns="http://www.w3.org/2000/svg" width="34" height="32" viewBox="0 0 34 32">
<title>quality</title>
<path d="M22.36 10.72l-3.506-0.508-1.567-3.178c-0.091-0.188-0.282-0.308-0.491-0.308s-0.4 0.119-0.491 0.308l-1.567 3.178-3.506 0.508c-0.198 0.034-0.361 0.174-0.425 0.365s-0.018 0.401 0.12 0.547l2.539 2.474-0.601 3.533c-0.040 0.209 0.045 0.422 0.218 0.546 0.168 0.12 0.391 0.135 0.573 0.038l3.14-1.677 3.14 1.638c0.077 0.043 0.163 0.066 0.251 0.066 0.112 0.010 0.224-0.013 0.322-0.066 0.173-0.124 0.258-0.337 0.218-0.546l-0.601-3.495 2.539-2.512c0.15-0.145 0.205-0.364 0.139-0.563s-0.238-0.343-0.445-0.371v0.022zM19.16 13.543c-0.13 0.126-0.189 0.308-0.158 0.486l0.459 2.687-2.408-1.262c-0.16-0.085-0.353-0.085-0.513 0l-2.408 1.267 0.481-2.692c0.031-0.178-0.028-0.36-0.158-0.486l-1.971-1.911 2.676-0.382c0.176-0.026 0.329-0.136 0.41-0.295l1.229-2.446 1.207 2.446c0.080 0.159 0.233 0.269 0.41 0.295l2.698 0.382-1.95 1.911zM16.795 3.107c-2.627 0-5.147 1.044-7.004 2.901s-2.902 4.377-2.902 7.004c0 2.627 1.044 5.147 2.902 7.004s4.377 2.901 7.004 2.901c2.627 0 5.147-1.044 7.004-2.901s2.902-4.377 2.902-7.004c-0.003-2.626-1.048-5.144-2.905-7.001s-4.375-2.902-7.001-2.904l0 0zM16.795 21.822v-0c-2.338 0-4.58-0.929-6.233-2.582s-2.581-3.896-2.581-6.234c0-2.338 0.93-4.58 2.583-6.232s3.896-2.58 6.234-2.579c2.338 0.001 4.579 0.931 6.232 2.585s2.58 3.896 2.578 6.234c-0.004 2.336-0.935 4.574-2.587 6.226s-3.891 2.58-6.227 2.583l-0 0zM33.429 24.263l-5.166-5.155v-0.049l-0.224-2.457 1.605-1.873c0.429-0.496 0.665-1.13 0.665-1.786s-0.236-1.29-0.665-1.786l-1.638-1.857 0.196-2.457h0c0.046-0.651-0.143-1.298-0.533-1.822s-0.954-0.891-1.591-1.034l-2.403-0.546-1.272-2.13c-0.341-0.56-0.873-0.979-1.498-1.18s-1.301-0.169-1.904 0.088l-2.272 0.978-2.277-0.945c-0.605-0.25-1.279-0.275-1.901-0.069s-1.148 0.627-1.485 1.189l-1.267 2.119-2.397 0.573c-0.636 0.154-1.195 0.532-1.576 1.064s-0.558 1.184-0.499 1.835l0.224 2.457-1.616 1.873c-0.429 0.496-0.665 1.13-0.665 1.786s0.236 1.29 0.665 1.786l1.638 1.857-0.186 2.31-5.226 5.231c-0.158 0.156-0.205 0.392-0.12 0.597s0.286 0.338 0.508 0.337l6.318-0.071-0.066 6.318c-0.002 0.221 0.129 0.422 0.333 0.508 0.067 0.029 0.14 0.044 0.213 0.044 0.144-0.002 0.281-0.061 0.382-0.164l3.964-3.959c0.213-0.214 0.212-0.56-0.003-0.773s-0.56-0.211-0.773 0.003l-3.014 3.009 0.066-5.532c0.001-0.148-0.058-0.29-0.164-0.393-0.099-0.109-0.241-0.167-0.388-0.158l-5.537 0.060 3.697-3.719c0.324 0.849 1.048 1.481 1.933 1.687l2.408 0.546 1.267 2.135c0.505 0.799 1.387 1.28 2.332 1.272 0.375 0.006 0.747-0.066 1.092-0.213l2.272-0.967 2.277 0.939c0.602 0.253 1.274 0.281 1.895 0.081s1.15-0.617 1.491-1.173l1.245-2.124 2.397-0.573c0.824-0.2 1.507-0.771 1.851-1.545l3.67 3.675-5.537-0.082c-0.147-0.010-0.29 0.048-0.388 0.158-0.106 0.103-0.165 0.245-0.164 0.393l0.066 5.532-3.014-3.009c-0.213-0.214-0.559-0.215-0.773-0.003s-0.216 0.559-0.003 0.773l3.964 3.964c0.101 0.103 0.238 0.162 0.382 0.164 0.073-0 0.146-0.015 0.213-0.044 0.204-0.086 0.335-0.287 0.333-0.508l-0.071-6.318 6.318 0.071c0.222 0.001 0.423-0.133 0.508-0.339 0.088-0.205 0.043-0.443-0.115-0.601l-0 0.001zM25.937 20.915l-2.621 0.628c-0.144 0.034-0.268 0.124-0.344 0.251l-1.382 2.31c-0.201 0.339-0.518 0.594-0.892 0.718s-0.781 0.11-1.145-0.041l-2.49-1.032c-0.135-0.056-0.286-0.056-0.421 0l-2.479 1.043c-0.362 0.155-0.767 0.175-1.142 0.055s-0.695-0.37-0.9-0.705l-1.409-2.299c-0.077-0.125-0.201-0.213-0.344-0.246l-2.627-0.606c-0.381-0.088-0.718-0.309-0.951-0.623s-0.345-0.702-0.316-1.092l0.207-2.687c0.011-0.145-0.036-0.288-0.131-0.399l-1.769-2.048c-0.257-0.297-0.398-0.677-0.398-1.070s0.141-0.773 0.398-1.070l1.753-2.048c0.097-0.111 0.144-0.257 0.131-0.404l-0.246-2.687c-0.034-0.391 0.073-0.782 0.303-1.101s0.566-0.544 0.948-0.636l2.621-0.628c0.144-0.034 0.268-0.124 0.344-0.251l1.382-2.315c0.202-0.342 0.52-0.599 0.897-0.723s0.786-0.108 1.151 0.046l2.463 1.038c0.135 0.056 0.286 0.056 0.421 0l2.479-1.038c0.362-0.155 0.767-0.175 1.142-0.055s0.695 0.37 0.9 0.705l1.409 2.299c0.077 0.125 0.201 0.213 0.344 0.246l2.627 0.601c0.383 0.088 0.722 0.311 0.954 0.627s0.343 0.707 0.313 1.098l-0.207 2.67c-0.013 0.147 0.035 0.293 0.131 0.404l1.769 2.026c0.257 0.297 0.398 0.677 0.398 1.070s-0.141 0.773-0.398 1.070l-1.753 2.053c-0.095 0.11-0.142 0.254-0.131 0.399l0.246 2.687c0.041 0.393-0.062 0.787-0.289 1.11s-0.562 0.553-0.945 0.649z"></path>
</svg>
