<svg width="46" height="32" viewBox="0 0 46 32" fill="none" xmlns="http://www.w3.org/2000/svg">
<path d="M21.602 18.951C21.5822 18.8928 21.5637 18.8332 21.543 18.7762L21.543 18.7758C21.0997 17.5044 20.3481 16.3637 19.3554 15.4562C19.0495 15.1785 18.7241 14.9234 18.3812 14.6929C18.3248 14.6545 18.2707 14.6139 18.2134 14.5764C18.1562 14.5389 18.1276 14.5142 18.0822 14.4855L18.0827 14.4855C17.7793 14.2992 17.4654 14.131 17.1427 13.9809C17.0353 13.9306 16.9217 13.8891 16.8112 13.8423C16.5286 13.7218 16.2398 13.6141 15.9444 13.5201C15.8083 13.4764 15.6741 13.4331 15.5349 13.3956L15.5354 13.3956C15.1273 13.2826 14.7126 13.1938 14.2934 13.1307C14.2718 13.1307 14.252 13.121 14.2304 13.1179C14.2089 13.1148 14.1613 13.1179 14.1318 13.1179C12.8806 12.9471 11.6087 13.004 10.3774 13.287C10.6649 12.2898 11.143 11.3584 11.7849 10.544C12.4752 9.6324 14.3546 7.49232 16.9653 7.33603L16.9653 7.33647C17.6992 7.29277 18.2896 6.71537 18.3517 5.98039L18.7215 1.61063L18.7215 1.61107C18.758 1.17582 18.6017 0.746752 18.294 0.437723C17.9858 0.128717 17.5579 -0.0284323 17.1238 0.00820453C10.8863 0.528217 1.55149 5.63471 0.249758 13.864C-0.606094 19.2786 0.778496 25.0526 3.77615 28.573L3.77659 28.573C5.30159 30.4716 7.51656 31.6846 9.93394 31.9447L9.95199 31.9447C10.2232 31.9703 10.4961 31.991 10.7744 31.991L10.7744 31.9915C14.2391 32.1248 17.5811 30.6928 19.8796 28.0897C21.7111 25.9156 22.4683 23.0295 21.9404 20.2334C21.859 19.7982 21.7458 19.3695 21.6023 18.951L21.602 18.951ZM6.02068 26.6399C3.5989 23.7962 2.45158 18.8459 3.16657 14.3221C4.10342 8.39809 10.5764 4.34306 15.6091 3.22983L15.4999 4.54885C11.8749 5.35755 9.06429 8.52703 7.88754 11.4052C7.14088 13.2328 7.18051 14.7394 7.99805 15.6492C8.33967 16.012 8.78213 16.2641 9.26822 16.3718C9.75425 16.48 10.2614 16.4389 10.7241 16.2544C11.0763 16.1555 11.436 16.0849 11.8001 16.0438C11.8159 16.0438 11.8296 16.0526 11.8454 16.0548C12.8959 16.2032 16.3769 16.9774 17.0545 20.7499L17.0541 20.7495C17.3979 22.5841 16.9466 24.4787 15.8134 25.9597C14.365 27.7285 12.2487 28.8149 9.9704 28.9588C8.41013 28.7116 6.99964 27.8835 6.02092 26.6399L6.02068 26.6399ZM45.8356 20.2277L45.8356 20.2272C45.7555 19.7942 45.6445 19.3677 45.5032 18.951C45.4834 18.8928 45.4649 18.8345 45.4442 18.7771L45.4438 18.7767C44.8587 17.1054 43.7475 15.6703 42.2775 14.6881C42.2233 14.6514 42.1709 14.6121 42.1146 14.5764C42.0582 14.5406 42.0287 14.5133 41.9825 14.4846L41.9825 14.4841C41.6787 14.297 41.3644 14.1279 41.0408 13.9782C40.9365 13.9288 40.826 13.8891 40.7186 13.8436C40.4315 13.7209 40.1396 13.6123 39.8398 13.5174C39.7069 13.475 39.5757 13.4313 39.4383 13.3938C39.0289 13.2803 38.6133 13.192 38.1937 13.1285C38.1721 13.1285 38.1523 13.1188 38.1308 13.1157C38.1092 13.1126 38.0625 13.1157 38.0321 13.1157C36.7806 12.944 35.5081 13.0009 34.2768 13.2839C34.5626 12.2867 35.0402 11.3548 35.6831 10.5408C36.3734 9.62928 38.2541 7.4892 40.8644 7.33291L40.8644 7.33335C41.5961 7.287 42.1834 6.71005 42.245 5.97772L42.6148 1.60797C42.6514 1.17315 42.4951 0.744085 42.1873 0.435068C41.8796 0.126502 41.4521 -0.0310864 41.018 0.00510969C34.7805 0.525122 25.4457 5.63162 24.1451 13.8609C23.2893 19.2755 24.6725 25.0495 27.6706 28.5699C29.1952 30.4685 31.4101 31.6815 33.8271 31.942L33.8429 31.942C34.115 31.9676 34.3871 31.9884 34.6653 31.9884C38.13 32.1221 41.4716 30.6906 43.7696 28.0874C45.6046 25.9138 46.3636 23.0259 45.8357 20.2272L45.8356 20.2277ZM29.9207 26.6399C27.4989 23.7962 26.3529 18.8459 27.0679 14.3221C28.0039 8.39809 34.4778 4.34306 39.5104 3.22983L39.3991 4.54885C35.7731 5.35755 32.9626 8.52703 31.7867 11.4052C31.0391 13.2328 31.0788 14.7394 31.895 15.6492C32.2375 16.0116 32.68 16.2628 33.166 16.3705C33.652 16.4786 34.1587 16.438 34.6219 16.2544C34.9741 16.1555 35.3337 16.0849 35.6974 16.0438C35.7132 16.0438 35.7269 16.0527 35.7436 16.0549C36.7941 16.2032 40.2742 16.9775 40.9513 20.75L40.9518 20.7495C41.296 22.5841 40.8448 24.4788 39.7111 25.9597C38.2631 27.7289 36.1464 28.8154 33.8681 28.9588C32.3083 28.7107 30.899 27.883 29.9209 26.6399L29.9207 26.6399Z" fill="#000"/>
</svg>
