<!-- Generated by IcoMoon.io -->
<svg version="1.1" xmlns="http://www.w3.org/2000/svg" width="33" height="32" viewBox="0 0 33 32">
<title>support-1</title>
<path d="M2.183 0.053c-0.608 0-1.179 0.207-1.58 0.614s-0.602 0.979-0.602 1.569v16.74c0 0.591 0.202 1.155 0.602 1.558s0.97 0.612 1.569 0.626h1.467v5.095c0.002 0.281 0.183 0.554 0.443 0.664s0.581 0.053 0.785-0.141l5.969-5.618h14.633c0.608 0 1.179-0.219 1.58-0.626s0.602-0.968 0.602-1.558v-16.74c0-0.59-0.19-1.162-0.591-1.569s-0.984-0.614-1.592-0.614h-23.285zM2.183 1.508h23.284c0.299 0 0.446 0.080 0.546 0.182s0.182 0.259 0.182 0.546v16.74c0 0.287-0.082 0.444-0.182 0.546s-0.247 0.182-0.546 0.182h-14.917c-0.183 0-0.366 0.069-0.5 0.193l-4.957 4.662v-4.128c0-0.381-0.347-0.728-0.728-0.728h-2.183c-0.297-0.010-0.459-0.094-0.557-0.193-0.1-0.101-0.171-0.247-0.171-0.534v-16.74c0-0.287 0.082-0.444 0.182-0.546s0.247-0.182 0.546-0.182l-0-0zM31.208 5.5c-0.354 0.039-0.65 0.372-0.648 0.728v17.116c0 0.288-0.071 0.424-0.171 0.523s-0.264 0.193-0.58 0.205h-2.524c-0.381 0-0.728 0.347-0.728 0.728v4.128l-4.957-4.663c-0.135-0.124-0.317-0.195-0.5-0.193h-9.459c-0.384-0.006-0.738 0.343-0.738 0.728s0.354 0.733 0.738 0.728h9.175l5.969 5.618c0.204 0.194 0.526 0.251 0.785 0.141s0.44-0.382 0.443-0.664v-5.095h1.842c0.595-0.022 1.157-0.225 1.558-0.626s0.603-0.969 0.603-1.558v-17.116c0.002-0.409-0.401-0.773-0.807-0.728l-0.001 0z"></path>
</svg>
