<!-- Generated by IcoMoon.io -->
<svg version="1.1" xmlns="http://www.w3.org/2000/svg" width="32" height="32" viewBox="0 0 32 32">
<title>visually</title>
<path d="M12.308 9.846c-1.359 0-2.462 1.102-2.462 2.462v14.769c0 1.359 1.102 2.462 2.462 2.462h14.769c1.359 0 2.462-1.102 2.462-2.462v-14.769c0-1.359-1.102-2.462-2.462-2.462h-14.769zM7.385 12.308c0-2.719 2.204-4.923 4.923-4.923h14.769c2.719 0 4.923 2.204 4.923 4.923v14.769c0 2.719-2.204 4.923-4.923 4.923h-14.769c-2.719 0-4.923-2.204-4.923-4.923v-14.769z"></path>
<path d="M1.231 0c0.68 0 1.231 0.551 1.231 1.231v0.018c0 0.68-0.551 1.231-1.231 1.231s-1.231-0.551-1.231-1.231v-0.018c0-0.68 0.551-1.231 1.231-1.231z"></path>
<path d="M8.615 0c0.68 0 1.231 0.551 1.231 1.231v0.018c0 0.68-0.551 1.231-1.231 1.231s-1.231-0.551-1.231-1.231v-0.018c0-0.68 0.551-1.231 1.231-1.231z"></path>
<path d="M16 0c0.68 0 1.231 0.551 1.231 1.231v0.018c0 0.68-0.551 1.231-1.231 1.231s-1.231-0.551-1.231-1.231v-0.018c0-0.68 0.551-1.231 1.231-1.231z"></path>
<path d="M23.385 0c0.68 0 1.231 0.551 1.231 1.231v0.018c0 0.68-0.551 1.231-1.231 1.231s-1.231-0.551-1.231-1.231v-0.018c0-0.68 0.551-1.231 1.231-1.231z"></path>
<path d="M1.231 7.385c0.68 0 1.231 0.551 1.231 1.231v0.018c0 0.68-0.551 1.231-1.231 1.231s-1.231-0.551-1.231-1.231v-0.018c0-0.68 0.551-1.231 1.231-1.231z"></path>
<path d="M1.231 14.769c0.68 0 1.231 0.551 1.231 1.231v0.018c0 0.68-0.551 1.231-1.231 1.231s-1.231-0.551-1.231-1.231v-0.018c0-0.68 0.551-1.231 1.231-1.231z"></path>
<path d="M1.231 22.154c0.68 0 1.231 0.551 1.231 1.231v0.018c0 0.68-0.551 1.231-1.231 1.231s-1.231-0.551-1.231-1.231v-0.018c0-0.68 0.551-1.231 1.231-1.231z"></path>
</svg>
